<svg xmlns="http://www.w3.org/2000/svg" viewBox="0 0 147.15 63.12"><defs><style>.cls-1{fill:#fff;}</style></defs><title>logo jules white</title><g id="Calque_2" data-name="Calque 2"><g id="Calque_1-2" data-name="Calque 1"><path class="cls-1" d="M140.49,6.84Q133.83,0,122.19,0a29.15,29.15,0,0,0-15.54,4.08,24.42,24.42,0,0,0-9.78,11A20.9,20.9,0,0,0,88.41,3.84,26.07,26.07,0,0,0,74,0a28.33,28.33,0,0,0-14.7,3.66,23,23,0,0,0-9,9.75l-.25.51V.48H44.19v55A21.67,21.67,0,0,0,48.46,48a34.34,34.34,0,0,0,1.73-11V29.76c0-.23,0-.46,0-.69Q50.38,18.39,56.37,12q6.18-6.6,16.74-6.6,9.24,0,14.4,5.52T92.67,27V63.12h6V29.76q0-11.16,6.18-17.76t16.74-6.6q9.24,0,14.4,5.52T141.15,27V63.12h6V26.52Q147.15,13.68,140.49,6.84Z"/><path class="cls-1" d="M50,13.92V.48H44.2V36c0,.22,0,.43,0,.65Q44,46.72,39,52.07q-5.16,5.52-14.4,5.52Q14.08,57.59,7.9,51a20.34,20.34,0,0,1-2.3-3H0A24.39,24.39,0,0,0,9.7,58.91,29.15,29.15,0,0,0,25.24,63q11.64,0,18.3-6.84c.22-.23.44-.47.65-.71A21.67,21.67,0,0,0,48.46,48a34.34,34.34,0,0,0,1.73-11c0-.18,0-.36,0-.54V13.41Z"/></g></g></svg>